{
	"asset":{
		"generator":"Khronos glTF Blender I/O v4.4.56",
		"version":"2.0"
	},
	"scene":0,
	"scenes":[
		{
			"name":"Scene",
			"nodes":[
				0,
				1,
				2,
				3
			]
		}
	],
	"nodes":[
		{
			"mesh":0,
			"name":"iso logo",
			"rotation":[
				0.7071068286895752,
				-2.8828420909121633e-05,
				0.00022864947095513344,
				0.7071067094802856
			],
			"scale":[
				8.895461082458496,
				8.89546012878418,
				8.89546012878418
			],
			"translation":[
				-0.008524235337972641,
				0.5717664957046509,
				-0.023146677762269974
			]
		},
		{
			"mesh":1,
			"name":"nombre",
			"rotation":[
				0.7071068286895752,
				-2.8828420909121633e-05,
				0.00022864947095513344,
				0.7071067094802856
			],
			"scale":[
				8.895461082458496,
				8.89546012878418,
				8.89546012878418
			],
			"translation":[
				0.027928262948989868,
				0.15640747547149658,
				-0.023133451119065285
			]
		},
		{
			"mesh":2,
			"name":"credenciales",
			"rotation":[
				0.7071068286895752,
				-2.8828420909121633e-05,
				0.00022864947095513344,
				0.7071067094802856
			],
			"scale":[
				8.895461082458496,
				8.89546012878418,
				8.89546012878418
			],
			"translation":[
				0.00022575631737709045,
				-0.052317775785923004,
				-0.02314355969429016
			]
		},
		{
			"mesh":3,
			"name":"titulo",
			"rotation":[
				0.7071068286895752,
				-2.8828420909121633e-05,
				0.00022864947095513344,
				0.7071067094802856
			],
			"scale":[
				8.895461082458496,
				8.89546012878418,
				8.89546012878418
			],
			"translation":[
				0.005698841065168381,
				0.03954185172915459,
				-0.02314155548810959
			]
		}
	],
	"materials":[
		{
			"doubleSided":true,
			"name":"SVGMat.003",
			"pbrMetallicRoughness":{
				"baseColorFactor":[
					0.039546236395835876,
					0.039546236395835876,
					0.039546236395835876,
					1
				],
				"metallicFactor":0,
				"roughnessFactor":0.4000000059604645
			}
		}
	],
	"meshes":[
		{
			"name":"Curve.092",
			"primitives":[
				{
					"attributes":{
						"POSITION":0,
						"NORMAL":1,
						"TEXCOORD_0":2
					},
					"indices":3,
					"material":0
				}
			]
		},
		{
			"name":"Curve.093",
			"primitives":[
				{
					"attributes":{
						"POSITION":4,
						"NORMAL":5,
						"TEXCOORD_0":6
					},
					"indices":7,
					"material":0
				}
			]
		},
		{
			"name":"Curve.094",
			"primitives":[
				{
					"attributes":{
						"POSITION":8,
						"NORMAL":9,
						"TEXCOORD_0":10
					},
					"indices":11,
					"material":0
				}
			]
		},
		{
			"name":"Curve.095",
			"primitives":[
				{
					"attributes":{
						"POSITION":12,
						"NORMAL":13,
						"TEXCOORD_0":14
					},
					"indices":15,
					"material":0
				}
			]
		}
	],
	"accessors":[
		{
			"bufferView":0,
			"componentType":5126,
			"count":7508,
			"max":[
				0.06611704081296921,
				0.003800000064074993,
				0.03536438196897507
			],
			"min":[
				-0.06612488627433777,
				-0.003800000064074993,
				-0.037200793623924255
			],
			"type":"VEC3"
		},
		{
			"bufferView":1,
			"componentType":5126,
			"count":7508,
			"type":"VEC3"
		},
		{
			"bufferView":2,
			"componentType":5126,
			"count":7508,
			"type":"VEC2"
		},
		{
			"bufferView":3,
			"componentType":5123,
			"count":39924,
			"type":"SCALAR"
		},
		{
			"bufferView":4,
			"componentType":5126,
			"count":5429,
			"max":[
				0.06013263389468193,
				0.002199999988079071,
				0.004628736991435289
			],
			"min":[
				-0.06831055879592896,
				-0.002199999988079071,
				-0.004915211815387011
			],
			"type":"VEC3"
		},
		{
			"bufferView":5,
			"componentType":5126,
			"count":5429,
			"type":"VEC3"
		},
		{
			"bufferView":6,
			"componentType":5126,
			"count":5429,
			"type":"VEC2"
		},
		{
			"bufferView":7,
			"componentType":5123,
			"count":26052,
			"type":"SCALAR"
		},
		{
			"bufferView":8,
			"componentType":5126,
			"count":221853,
			"max":[
				0.06325351446866989,
				0.0009999999310821295,
				0.0038624571170657873
			],
			"min":[
				-0.06518968194723129,
				-0.0009999999310821295,
				-0.0031067642848938704
			],
			"type":"VEC3"
		},
		{
			"bufferView":9,
			"componentType":5126,
			"count":221853,
			"type":"VEC3"
		},
		{
			"bufferView":10,
			"componentType":5126,
			"count":221853,
			"type":"VEC2"
		},
		{
			"bufferView":11,
			"componentType":5125,
			"count":1200780,
			"type":"SCALAR"
		},
		{
			"bufferView":12,
			"componentType":5126,
			"count":136892,
			"max":[
				0.06273742765188217,
				0.0009000000427477062,
				0.004352754447609186
			],
			"min":[
				-0.06590787321329117,
				-0.0009000000427477062,
				-0.004142515826970339
			],
			"type":"VEC3"
		},
		{
			"bufferView":13,
			"componentType":5126,
			"count":136892,
			"type":"VEC3"
		},
		{
			"bufferView":14,
			"componentType":5126,
			"count":136892,
			"type":"VEC2"
		},
		{
			"bufferView":15,
			"componentType":5125,
			"count":738432,
			"type":"SCALAR"
		}
	],
	"bufferViews":[
		{
			"buffer":0,
			"byteLength":90096,
			"byteOffset":0,
			"target":34962
		},
		{
			"buffer":0,
			"byteLength":90096,
			"byteOffset":90096,
			"target":34962
		},
		{
			"buffer":0,
			"byteLength":60064,
			"byteOffset":180192,
			"target":34962
		},
		{
			"buffer":0,
			"byteLength":79848,
			"byteOffset":240256,
			"target":34963
		},
		{
			"buffer":0,
			"byteLength":65148,
			"byteOffset":320104,
			"target":34962
		},
		{
			"buffer":0,
			"byteLength":65148,
			"byteOffset":385252,
			"target":34962
		},
		{
			"buffer":0,
			"byteLength":43432,
			"byteOffset":450400,
			"target":34962
		},
		{
			"buffer":0,
			"byteLength":52104,
			"byteOffset":493832,
			"target":34963
		},
		{
			"buffer":0,
			"byteLength":2662236,
			"byteOffset":545936,
			"target":34962
		},
		{
			"buffer":0,
			"byteLength":2662236,
			"byteOffset":3208172,
			"target":34962
		},
		{
			"buffer":0,
			"byteLength":1774824,
			"byteOffset":5870408,
			"target":34962
		},
		{
			"buffer":0,
			"byteLength":4803120,
			"byteOffset":7645232,
			"target":34963
		},
		{
			"buffer":0,
			"byteLength":1642704,
			"byteOffset":12448352,
			"target":34962
		},
		{
			"buffer":0,
			"byteLength":1642704,
			"byteOffset":14091056,
			"target":34962
		},
		{
			"buffer":0,
			"byteLength":1095136,
			"byteOffset":15733760,
			"target":34962
		},
		{
			"buffer":0,
			"byteLength":2953728,
			"byteOffset":16828896,
			"target":34963
		}
	],
	"buffers":[
		{
			"byteLength":19782624,
			"uri":"logo-v1.bin"
		}
	]
}
